<?xml version="1.0" encoding="utf-8"?>
<!-- Generator: $$$/GeneralStr/196=Adobe Illustrator 27.6.0, SVG Export Plug-In . SVG Version: 6.00 Build 0)  -->
<svg version="1.1" xmlns="http://www.w3.org/2000/svg" xmlns:xlink="http://www.w3.org/1999/xlink" x="0px" y="0px" width="613" height="198"
	 viewBox="0 0 613.9 198.2" style="enable-background:new 0 0 613.9 198.2;" xml:space="preserve">
<style type="text/css">
	.st0{fill-rule:evenodd;clip-rule:evenodd;fill:#1195EB;}
	.st1{display:none;}
	.st2{display:inline;fill:#000099;}
	.st3{font-family:'MarkOT-Narrow';}
	.st4{font-size:81px;}
	.st5{font-family:'MarkOT-Bold';}
	.st6{fill:#000099;}
	.st7{fill:#FFFFFF;}
</style>
<g id="Ebene_1">
	<circle class="st0" cx="98.9" cy="99.1" r="85"/>
</g>
<g id="Text" class="st1">
	<text transform="matrix(1 0 0 1 223.0115 85.164)" class="st2 st3 st4">Netze BW</text>
	<text transform="matrix(1 0 0 1 226.7531 169.8078)" class="st2 st5 st4">diginamic</text>
</g>
<g id="Text_Pfade">
	<g>
		<path class="st6" d="M263.2,85.2l-30.1-45.2v45.1h-6.2V28.4h5.8l30.1,45.2V28.5h6.2v56.8H263.2z"/>
		<path class="st6" d="M279.2,66c0-12.1,7-19.9,17-19.9c9.5,0,16.2,7.8,16.2,19.8c0,0.7,0,1.5-0.1,2.1h-27.1
			c0.7,8.3,5.5,12.6,11.9,12.6c4.4,0,7.9-1.8,10.7-4.5l3.1,4c-4.2,4.3-9.1,5.8-14.2,5.8C286.2,85.8,279.2,78.2,279.2,66z
			 M306.5,63.2c-0.6-7.2-4.6-11.9-10.4-11.9c-6.1,0-10.1,4.5-10.9,11.9H306.5z"/>
		<path class="st6" d="M324.8,73V52.1h-7.5v-5.4h7.5V35.2h5.9v11.5h14.4v5.4h-14.4v20.6c0,5.2,2.8,7.6,6.8,7.6
			c2.6,0,4.9-0.9,6.8-2.3l2.5,4.5c-2.5,1.9-5.9,3.3-10.1,3.3C329.2,85.8,324.8,81.6,324.8,73z"/>
		<path class="st6" d="M352.1,85.2v-4.4L374.2,52h-21.4v-5.3h28.7v4.5l-21.8,28.7h22.2v5.3H352.1z"/>
		<path class="st6" d="M388.4,66c0-12.1,7-19.9,17-19.9c9.5,0,16.2,7.8,16.2,19.8c0,0.7,0,1.5-0.1,2.1h-27.1
			c0.7,8.3,5.5,12.6,11.9,12.6c4.4,0,7.9-1.8,10.7-4.5l3.1,4c-4.2,4.3-9.1,5.8-14.2,5.8C395.5,85.8,388.4,78.2,388.4,66z
			 M415.8,63.2c-0.6-7.2-4.6-11.9-10.4-11.9c-6.1,0-10.1,4.5-10.9,11.9H415.8z"/>
		<path class="st6" d="M450.1,85.2V28.5h19.2c11.1,0,18.7,4.5,18.7,15c0,6.7-3.7,10.9-9.4,12.6c6.1,1.6,10.4,6.2,10.4,13.5
			c0,10.7-7.3,15.6-19,15.6H450.1z M456.4,53.5h12.8c7.1,0,12.3-2.3,12.3-9.6c0-7.2-5.2-9.6-12.4-9.6h-12.8V53.5z M456.4,79.4H470
			c7.6,0,12.6-2.7,12.6-10.1c0-7.4-5-10.1-12.6-10.1h-13.6V79.4z"/>
		<path class="st6" d="M510.4,85.2l-16.2-56.8h6.5l13.6,49.2l14-49.2h6.8l14,49.2l13.6-49.2h6.4l-16.3,56.8h-7.5l-13.6-47.7
			l-13.7,47.7H510.4z"/>
	</g>
	<g>
		<path class="st6" d="M225.4,150.2c0-11.8,8.2-20.7,19-20.7c5.3,0,9,2.1,11.5,5.1v-23.2h10.5v58.3h-10.3v-4.3
			c-2.6,3.2-6.4,5.3-11.7,5.3C233.6,170.8,225.4,162,225.4,150.2z M256.4,150.2c0-6.2-4.1-10.8-10.1-10.8c-6.2,0-10.1,4.8-10.1,10.8
			s3.9,10.8,10.1,10.8C252.3,161,256.4,156.4,256.4,150.2z"/>
		<path class="st6" d="M276,117.7c0-3.8,2.9-6.8,6.7-6.8s6.8,3,6.8,6.8c0,3.8-3,6.7-6.8,6.7S276,121.5,276,117.7z M277.5,169.8
			v-39.2h10.6v39.2H277.5z"/>
		<path class="st6" d="M299,182l3.8-8.6c3.9,2.6,8.3,4,13,4c6.6,0,11.2-3.6,11.2-10.4v-2.8c-2.7,3.3-6.6,5.3-12.1,5.3
			c-9.6,0-18.1-8-18.1-20c0-12.1,8.5-20,18.1-20c5.5,0,9.5,2.1,12.1,5.4v-4.4h10.4v36c0,12.6-8.2,20.2-21.2,20.2
			C310,186.8,303.4,185.2,299,182z M327.3,149.6c0-5.9-4-10.3-9.8-10.3c-6,0-9.9,4.6-9.9,10.3c0,5.7,3.8,10.3,9.9,10.3
			C323.4,159.8,327.3,155.4,327.3,149.6z"/>
		<path class="st6" d="M347,117.7c0-3.8,2.9-6.8,6.7-6.8s6.8,3,6.8,6.8c0,3.8-3,6.7-6.8,6.7S347,121.5,347,117.7z M348.4,169.8
			v-39.2H359v39.2H348.4z"/>
		<path class="st6" d="M370.1,169.8v-39.2h10.3v4.6c2.8-4.2,7.1-5.7,11.5-5.7c8.9,0,15.3,6.2,15.3,15.3v25h-10.6v-21.6
			c0-5.7-2.8-8.8-7.7-8.8c-4.5,0-8.3,3-8.3,8.9v21.5H370.1z"/>
		<path class="st6" d="M415.6,150.2c0-11.8,8.2-20.7,19-20.7c5.4,0,9.2,2.2,11.7,5.4v-4.3h10.3v39.2h-10.3v-4.3
			c-2.6,3.2-6.4,5.3-11.7,5.3C423.7,170.8,415.6,162,415.6,150.2z M446.6,150.2c0-6.2-4.1-10.8-10.1-10.8c-6.2,0-10.1,4.8-10.1,10.8
			s3.9,10.8,10.1,10.8C442.5,161,446.6,156.4,446.6,150.2z"/>
		<path class="st6" d="M467.7,169.8v-39.2H478v4.6c2.8-4.2,7.1-5.7,11.5-5.7c5.7,0,10.3,2.6,13,6.7c3-5,8.2-6.7,13.3-6.7
			c9.2,0,15.5,6.2,15.5,15.3v25h-10.5v-21.6c0-5.7-2.9-8.8-7.7-8.8c-4.5,0-8.3,3-8.3,8.9v21.5h-10.6v-21.6c0-5.7-2.8-8.8-7.7-8.8
			c-4.5,0-8.3,3-8.3,8.9v21.5H467.7z"/>
		<path class="st6" d="M540.6,117.7c0-3.8,2.9-6.8,6.7-6.8s6.8,3,6.8,6.8c0,3.8-3,6.7-6.8,6.7S540.6,121.5,540.6,117.7z
			 M542.1,169.8v-39.2h10.6v39.2H542.1z"/>
		<path class="st6" d="M561.3,150.2c0-11.9,8.4-20.7,20.9-20.7c6.6,0,12.1,2.7,15.7,7.4l-7.6,6.4c-2.4-2.6-4.9-3.9-8.4-3.9
			c-5.5,0-9.8,4.3-9.8,10.8c0,6.6,4.3,10.8,9.8,10.8c3.4,0,6.3-1.5,8.5-4l7.5,6.4c-3.7,4.7-9.2,7.4-15.8,7.4
			C569.7,170.8,561.3,162.1,561.3,150.2z"/>
	</g>
</g>
<g id="Pikto">
	<path class="st7" d="M58.6,99.2c1.5,0,2.8-1.3,2.8-2.8V72.2c0-0.5,0.4-1,1-1h27v8.4H109V60H89.4v5.6h-27c-3.6,0-6.6,3-6.6,6.6v24.2
		C55.8,98,57,99.2,58.6,99.2z M95,65.6h8.4V74H95V65.6z M106.2,88h8.4v8.4h-8.4V88z M120.2,107.6h5.6v8.4H61.4v-5.6
		c0-1.5-1.3-2.8-2.8-2.8s-2.8,1.3-2.8,2.8v11.2h75.6v-14H151V76.8h-30.8V107.6z M125.8,82.4h19.6V102h-19.6V82.4z M137,48.8h-22.4
		v22.4H137V48.8z M131.4,65.6h-11.2V54.4h11.2V65.6z M153.8,60v8.4h-8.4V60H153.8z M47.4,135.6c0,4.6,3.8,8.4,8.4,8.4h75.6
		c4.6,0,8.4-3.8,8.4-8.4v-8.4H47.4V135.6z M53,132.8h81.2v2.8c0,1.5-1.3,2.8-2.8,2.8H55.8c-1.5,0-2.8-1.3-2.8-2.8V132.8z"/>
</g>
</svg>
